<?xml version="1.0" encoding="UTF-8"?>
<svg id="Layer_2" xmlns="http://www.w3.org/2000/svg" viewBox="0 0 115.61 96.89">
  <defs>
    <style>
      .cls-1 {
        fill: #78be43;
      }

      .cls-2 {
        fill: #00a9e0;
      }

      .cls-3 {
        fill: #007681;
      }
    </style>
  </defs>
  <g id="Layer_1-2" data-name="Layer_1">
    <g>
      <path class="cls-3" d="M0,56.59h5.65c1.65,0,3.1,1.1,3.54,2.69l8.09,28.8,9.64-31.49h7.79l-13.38,39.74h-5.11c-1.97,0-3.71-1.27-4.32-3.14L0,56.59Z"/>
      <path class="cls-3" d="M34.54,66.94h7.54v29.39h-3c-2.51,0-4.54-2.03-4.54-4.54v-24.84Z"/>
      <path class="cls-3" d="M45.38,66.94h5.31c1.65,0,3.09,1.09,3.54,2.68l5.7,20.19,6.58-22.87h7.57l-9.92,29.39h-5.83c-1.96,0-3.7-1.26-4.32-3.12l-8.65-26.27Z"/>
      <path class="cls-3" d="M77.36,66.94h7.54v29.39h-3c-2.51,0-4.54-2.03-4.54-4.54v-24.84Z"/>
      <path class="cls-3" d="M115.55,83.5h-18.14c.14,2.76.94,4.83,2.38,6.22,1.44,1.39,3.49,2.08,6.15,2.08,1.36,0,2.7-.18,4.02-.53,1.32-.35,2.62-.89,3.89-1.59v5.34c-1.4.63-2.85,1.1-4.34,1.41-1.49.31-3.07.46-4.71.46-4.8,0-8.51-1.31-11.13-3.94-2.62-2.63-3.93-6.37-3.93-11.21s1.22-8.51,3.65-11.27c2.43-2.76,5.75-4.14,9.95-4.14,3.69,0,6.66,1.33,8.9,4,2.25,2.67,3.37,6.24,3.37,10.71,0,.37,0,.77-.02,1.19-.01.42-.03.84-.05,1.27ZM108.47,79.33v-.53c0-2.46-.44-4.33-1.33-5.62-.89-1.29-2.19-1.93-3.93-1.93s-3.21.66-4.19,1.99c-.98,1.32-1.56,3.36-1.75,6.1h11.19Z"/>
      <g>
        <path class="cls-1" d="M82.05,46.94v-13.85c0-3.44,1.31-6.76,3.66-9.28l15.55-16.66v13.85c0,3.44-1.31,6.76-3.66,9.28l-15.55,16.66Z"/>
        <path class="cls-3" d="M79.23,54.1v-21c0-4.17,1.57-8.15,4.42-11.2L104.08,0v21c0,4.17-1.57,8.15-4.42,11.2l-20.43,21.89ZM98.44,14.31l-10.67,11.43c-1.87,2-2.9,4.61-2.9,7.35v6.69l10.67-11.43c1.87-2,2.9-4.61,2.9-7.35v-6.69Z"/>
        <path class="cls-2" d="M82.05,53.64v-13.85c0-3.44-1.31-6.76-3.66-9.28l-15.55-16.66v13.85c0,3.44,1.31,6.76,3.66,9.28l15.55,16.66Z"/>
        <path class="cls-3" d="M84.87,62v-21c0-4.17-1.57-8.15-4.42-11.2L60.02,7.9v21c0,4.17,1.57,8.15,4.42,11.2l20.43,21.89ZM65.66,22.21l10.67,11.43c1.87,2,2.9,4.61,2.9,7.35v6.69l-10.67-11.43c-1.87-2-2.9-4.61-2.9-7.35v-6.69Z"/>
        <path class="cls-3" d="M76.75,2.99v8.19c0,1.77.67,3.47,1.88,4.76l6.24,6.69v-8.19c0-1.77-.67-3.47-1.88-4.76l-6.24-6.69Z"/>
      </g>
    </g>
  </g>
</svg>